<svg width="21" height="20" viewBox="0 0 21 20" fill="none" xmlns="http://www.w3.org/2000/svg">
<path d="M18.66 2.50532C17.5983 1.44333 16.1908 0.797648 14.6933 0.685703C13.1958 0.573758 11.7078 1.00298 10.5 1.89532C9.22769 0.948959 7.64402 0.519833 6.06795 0.694359C4.49188 0.868885 3.04047 1.6341 2.006 2.83591C0.971538 4.03771 0.430854 5.58684 0.492833 7.17134C0.554811 8.75583 1.21485 10.258 2.34003 11.3753L9.79003 18.8253C9.88299 18.9191 9.9936 18.9934 10.1155 19.0442C10.2373 19.095 10.368 19.1211 10.5 19.1211C10.632 19.1211 10.7627 19.095 10.8846 19.0442C11.0065 18.9934 11.1171 18.9191 11.21 18.8253L18.66 11.3753C19.2427 10.793 19.7049 10.1017 20.0202 9.34069C20.3356 8.57971 20.4979 7.76405 20.4979 6.94032C20.4979 6.11659 20.3356 5.30093 20.0202 4.53996C19.7049 3.77898 19.2427 3.0876 18.66 2.50532ZM17.25 9.96532L10.5 16.7053L3.75003 9.96532C3.15521 9.36802 2.75001 8.60837 2.58526 7.78166C2.42052 6.95495 2.50356 6.09801 2.82398 5.31832C3.1444 4.53863 3.68793 3.87091 4.38638 3.39894C5.08483 2.92697 5.90709 2.67176 6.75003 2.66532C7.87614 2.66808 8.95513 3.11766 9.75003 3.91532C9.84299 4.00905 9.9536 4.08344 10.0755 4.13421C10.1973 4.18498 10.328 4.21112 10.46 4.21112C10.592 4.21112 10.7227 4.18498 10.8446 4.13421C10.9665 4.08344 11.0771 4.00905 11.17 3.91532C11.9884 3.2062 13.0455 2.83447 14.1276 2.87535C15.2096 2.91623 16.2357 3.36667 16.9982 4.13551C17.7607 4.90435 18.2026 5.93416 18.2345 7.01651C18.2664 8.09886 17.8859 9.15291 17.17 9.96532H17.25Z" fill="#636363"/>
</svg>
